<mxfile host="65bd71144e" scale="1" border="10">
    <diagram id="QW_a9i0kleMxCVxmZhem" name="Page-1">
        <mxGraphModel dx="852" dy="645" grid="0" gridSize="10" guides="1" tooltips="1" connect="1" arrows="1" fold="1" page="1" pageScale="1" pageWidth="1654" pageHeight="1169" background="#ffffff" math="0" shadow="0">
            <root>
                <mxCell id="0"/>
                <mxCell id="1" parent="0"/>
                <mxCell id="27" value="Lanchonete FIAP - LLD" style="text;html=1;align=center;verticalAlign=middle;whiteSpace=wrap;rounded=0;fontSize=18;" parent="1" vertex="1">
                    <mxGeometry x="492" y="67" width="670" height="30" as="geometry"/>
                </mxCell>
                <mxCell id="42" value="" style="rounded=0;whiteSpace=wrap;html=1;strokeColor=#FF8000;" parent="1" vertex="1">
                    <mxGeometry x="172" y="152" width="1379" height="997" as="geometry"/>
                </mxCell>
                <mxCell id="43" value="" style="rounded=0;whiteSpace=wrap;html=1;strokeColor=#FF3333;" parent="1" vertex="1">
                    <mxGeometry x="242" y="213" width="1280" height="906" as="geometry"/>
                </mxCell>
                <mxCell id="44" value="172.31.0.0/16" style="text;html=1;align=center;verticalAlign=middle;whiteSpace=wrap;rounded=0;" parent="1" vertex="1">
                    <mxGeometry x="297" y="224" width="89" height="30" as="geometry"/>
                </mxCell>
                <mxCell id="45" value="" style="outlineConnect=0;dashed=0;verticalLabelPosition=bottom;verticalAlign=top;align=center;html=1;shape=mxgraph.aws3.virtual_private_cloud;fillColor=#F58534;gradientColor=none;" parent="1" vertex="1">
                    <mxGeometry x="243" y="216" width="50" height="38" as="geometry"/>
                </mxCell>
                <mxCell id="46" value="" style="outlineConnect=0;dashed=0;verticalLabelPosition=bottom;verticalAlign=top;align=center;html=1;shape=mxgraph.aws3.cloud_2;fillColor=#F58534;gradientColor=none;opacity=70;" parent="1" vertex="1">
                    <mxGeometry x="171.99999999999997" y="150" width="57" height="56" as="geometry"/>
                </mxCell>
                <mxCell id="51" value="Private subnet" style="points=[[0,0],[0.25,0],[0.5,0],[0.75,0],[1,0],[1,0.25],[1,0.5],[1,0.75],[1,1],[0.75,1],[0.5,1],[0.25,1],[0,1],[0,0.75],[0,0.5],[0,0.25]];outlineConnect=0;gradientColor=none;html=1;whiteSpace=wrap;fontSize=12;fontStyle=0;container=1;pointerEvents=0;collapsible=0;recursiveResize=0;shape=mxgraph.aws4.group;grIcon=mxgraph.aws4.group_security_group;grStroke=0;strokeColor=#00A4A6;fillColor=#E6F6F7;verticalAlign=top;align=left;spacingLeft=30;fontColor=#147EBA;dashed=0;" parent="1" vertex="1">
                    <mxGeometry x="605" y="253" width="874" height="850" as="geometry"/>
                </mxCell>
                <mxCell id="52" value="Cliente Function&lt;div&gt;Lambda&lt;/div&gt;" style="outlineConnect=0;dashed=0;verticalLabelPosition=bottom;verticalAlign=top;align=center;html=1;shape=mxgraph.aws3.lambda_function;fillColor=#F58534;gradientColor=none;" parent="51" vertex="1">
                    <mxGeometry x="121" y="185.5" width="69" height="72" as="geometry"/>
                </mxCell>
                <mxCell id="75" value="WebApi&lt;div&gt;EKS&lt;/div&gt;" style="sketch=0;points=[[0,0,0],[0.25,0,0],[0.5,0,0],[0.75,0,0],[1,0,0],[0,1,0],[0.25,1,0],[0.5,1,0],[0.75,1,0],[1,1,0],[0,0.25,0],[0,0.5,0],[0,0.75,0],[1,0.25,0],[1,0.5,0],[1,0.75,0]];outlineConnect=0;fontColor=#232F3E;fillColor=#ED7100;strokeColor=#ffffff;dashed=0;verticalLabelPosition=bottom;verticalAlign=top;align=center;html=1;fontSize=12;fontStyle=0;aspect=fixed;shape=mxgraph.aws4.resourceIcon;resIcon=mxgraph.aws4.eks;" parent="51" vertex="1">
                    <mxGeometry x="116.5" y="383" width="78" height="78" as="geometry"/>
                </mxCell>
                <mxCell id="53" style="edgeStyle=none;html=1;entryX=0;entryY=0.5;entryDx=0;entryDy=0;entryPerimeter=0;" parent="1" source="50" target="181" edge="1">
                    <mxGeometry relative="1" as="geometry">
                        <mxPoint x="454.75" y="468.5" as="sourcePoint"/>
                    </mxGeometry>
                </mxCell>
                <mxCell id="54" value="Path /auth&lt;div&gt;&lt;span style=&quot;color: rgb(63, 63, 63); background-color: transparent;&quot;&gt;http_type Post&lt;/span&gt;&lt;div&gt;type AWS&lt;/div&gt;&lt;div&gt;permission&amp;nbsp;lambda:InvokeFunction&lt;/div&gt;&lt;/div&gt;" style="text;html=1;align=center;verticalAlign=middle;whiteSpace=wrap;rounded=0;" parent="1" vertex="1">
                    <mxGeometry x="459.18" y="322" width="204" height="58" as="geometry"/>
                </mxCell>
                <mxCell id="50" value="Api Gateway&lt;div&gt;Rest API&lt;/div&gt;" style="outlineConnect=0;dashed=0;verticalLabelPosition=bottom;verticalAlign=top;align=center;html=1;shape=mxgraph.aws3.api_gateway;fillColor=#D9A741;gradientColor=none;" parent="1" vertex="1">
                    <mxGeometry x="354" y="428" width="76.5" height="93" as="geometry"/>
                </mxCell>
                <mxCell id="64" value="" style="rounded=0;whiteSpace=wrap;html=1;fontColor=#000000;strokeColor=#FF8000;" parent="1" vertex="1">
                    <mxGeometry x="298" y="714" width="200" height="272" as="geometry"/>
                </mxCell>
                <mxCell id="65" value="ECR" style="sketch=0;points=[[0,0,0],[0.25,0,0],[0.5,0,0],[0.75,0,0],[1,0,0],[0,1,0],[0.25,1,0],[0.5,1,0],[0.75,1,0],[1,1,0],[0,0.25,0],[0,0.5,0],[0,0.75,0],[1,0.25,0],[1,0.5,0],[1,0.75,0]];outlineConnect=0;fontColor=#232F3E;fillColor=#ED7100;strokeColor=#ffffff;dashed=0;verticalLabelPosition=middle;verticalAlign=middle;align=left;html=1;fontSize=12;fontStyle=0;aspect=fixed;shape=mxgraph.aws4.resourceIcon;resIcon=mxgraph.aws4.ecr;labelPosition=right;" parent="1" vertex="1">
                    <mxGeometry x="299" y="714" width="45" height="45" as="geometry"/>
                </mxCell>
                <mxCell id="68" value="" style="points=[];aspect=fixed;html=1;align=center;shadow=0;dashed=0;fillColor=#FF6A00;strokeColor=none;shape=mxgraph.alibaba_cloud.eci_elastic_container_instance;verticalAlign=bottom;" parent="1" vertex="1">
                    <mxGeometry x="404.28" y="732" width="54.900000000000006" height="38.4" as="geometry"/>
                </mxCell>
                <mxCell id="69" value="Repositorio&lt;div&gt;fiap-lambda&lt;/div&gt;" style="text;html=1;align=center;verticalAlign=middle;whiteSpace=wrap;rounded=0;" parent="1" vertex="1">
                    <mxGeometry x="388.45000000000005" y="773" width="88.55" height="30" as="geometry"/>
                </mxCell>
                <mxCell id="70" value="" style="points=[];aspect=fixed;html=1;align=center;shadow=0;dashed=0;fillColor=#FF6A00;strokeColor=none;shape=mxgraph.alibaba_cloud.eci_elastic_container_instance;verticalAlign=bottom;" parent="1" vertex="1">
                    <mxGeometry x="405.28" y="905" width="54.900000000000006" height="38.4" as="geometry"/>
                </mxCell>
                <mxCell id="71" value="Repositorio&lt;div&gt;fiap-webapi&lt;/div&gt;" style="text;html=1;align=center;verticalAlign=middle;whiteSpace=wrap;rounded=0;" parent="1" vertex="1">
                    <mxGeometry x="389.45000000000005" y="946" width="88.55" height="30" as="geometry"/>
                </mxCell>
                <mxCell id="74" style="html=1;entryX=1;entryY=0.107;entryDx=0;entryDy=0;entryPerimeter=0;dashed=1;dashPattern=8 8;strokeColor=#999999;" parent="1" source="52" target="64" edge="1">
                    <mxGeometry relative="1" as="geometry"/>
                </mxCell>
                <mxCell id="76" style="edgeStyle=none;html=1;entryX=1.005;entryY=0.115;entryDx=0;entryDy=0;entryPerimeter=0;dashed=1;dashPattern=8 8;strokeColor=#999999;" parent="1" source="75" target="64" edge="1">
                    <mxGeometry relative="1" as="geometry"/>
                </mxCell>
                <mxCell id="79" style="edgeStyle=none;html=1;entryX=0;entryY=0;entryDx=0;entryDy=0;entryPerimeter=0;" parent="1" source="50" target="75" edge="1">
                    <mxGeometry relative="1" as="geometry"/>
                </mxCell>
                <mxCell id="80" value="Path&amp;nbsp;/eks/{proxy+}&lt;div&gt;http_type ANY&lt;/div&gt;&lt;div&gt;type HTTP_PROXY&lt;br&gt;&lt;/div&gt;&lt;div&gt;Header JWT&lt;/div&gt;" style="text;html=1;align=center;verticalAlign=middle;whiteSpace=wrap;rounded=0;" parent="1" vertex="1">
                    <mxGeometry x="453" y="560" width="124" height="58" as="geometry"/>
                </mxCell>
                <mxCell id="166" value="" style="group" parent="1" vertex="1" connectable="0">
                    <mxGeometry x="859" y="674" width="348" height="360" as="geometry"/>
                </mxCell>
                <mxCell id="125" value="" style="rounded=0;whiteSpace=wrap;html=1;dashed=1;strokeColor=#0000FF;container=1;" parent="166" vertex="1">
                    <mxGeometry width="348" height="360" as="geometry"/>
                </mxCell>
                <mxCell id="126" value="" style="aspect=fixed;sketch=0;html=1;dashed=0;whitespace=wrap;verticalLabelPosition=bottom;verticalAlign=top;fillColor=#2875E2;strokeColor=#ffffff;points=[[0.005,0.63,0],[0.1,0.2,0],[0.9,0.2,0],[0.5,0,0],[0.995,0.63,0],[0.72,0.99,0],[0.5,1,0],[0.28,0.99,0]];shape=mxgraph.kubernetes.icon2;kubernetesLabel=1;prIcon=ns" parent="166" vertex="1">
                    <mxGeometry width="50" height="48" as="geometry"/>
                </mxCell>
                <mxCell id="127" value="" style="aspect=fixed;sketch=0;html=1;dashed=0;whitespace=wrap;verticalLabelPosition=bottom;verticalAlign=top;fillColor=#2875E2;strokeColor=#ffffff;points=[[0.005,0.63,0],[0.1,0.2,0],[0.9,0.2,0],[0.5,0,0],[0.995,0.63,0],[0.72,0.99,0],[0.5,1,0],[0.28,0.99,0]];shape=mxgraph.kubernetes.icon2;kubernetesLabel=1;prIcon=secret" parent="166" vertex="1">
                    <mxGeometry x="176" y="289" width="50" height="48" as="geometry"/>
                </mxCell>
                <mxCell id="128" value="" style="aspect=fixed;sketch=0;html=1;dashed=0;whitespace=wrap;verticalLabelPosition=bottom;verticalAlign=top;fillColor=#2875E2;strokeColor=#ffffff;points=[[0.005,0.63,0],[0.1,0.2,0],[0.9,0.2,0],[0.5,0,0],[0.995,0.63,0],[0.72,0.99,0],[0.5,1,0],[0.28,0.99,0]];shape=mxgraph.kubernetes.icon2;kubernetesLabel=1;prIcon=cm" parent="166" vertex="1">
                    <mxGeometry x="66" y="290" width="50" height="48" as="geometry"/>
                </mxCell>
                <mxCell id="129" value="" style="aspect=fixed;sketch=0;html=1;dashed=0;whitespace=wrap;verticalLabelPosition=bottom;verticalAlign=top;fillColor=#2875E2;strokeColor=#ffffff;points=[[0.005,0.63,0],[0.1,0.2,0],[0.9,0.2,0],[0.5,0,0],[0.995,0.63,0],[0.72,0.99,0],[0.5,1,0],[0.28,0.99,0]];shape=mxgraph.kubernetes.icon2;kubernetesLabel=1;prIcon=ds" parent="166" vertex="1">
                    <mxGeometry x="126" y="12" width="50" height="48" as="geometry"/>
                </mxCell>
                <mxCell id="130" value="" style="aspect=fixed;sketch=0;html=1;dashed=0;whitespace=wrap;verticalLabelPosition=bottom;verticalAlign=top;fillColor=#2875E2;strokeColor=#ffffff;points=[[0.005,0.63,0],[0.1,0.2,0],[0.9,0.2,0],[0.5,0,0],[0.995,0.63,0],[0.72,0.99,0],[0.5,1,0],[0.28,0.99,0]];shape=mxgraph.kubernetes.icon2;kubernetesLabel=1;prIcon=hpa" parent="166" vertex="1">
                    <mxGeometry x="283" y="20" width="50" height="48" as="geometry"/>
                </mxCell>
                <mxCell id="134" value="" style="rounded=0;whiteSpace=wrap;html=1;dashed=1;strokeColor=#007FFF;" parent="166" vertex="1">
                    <mxGeometry x="46" y="125" width="200" height="89" as="geometry"/>
                </mxCell>
                <mxCell id="135" value="" style="aspect=fixed;sketch=0;html=1;dashed=0;whitespace=wrap;verticalLabelPosition=bottom;verticalAlign=top;fillColor=#2875E2;strokeColor=#ffffff;points=[[0.005,0.63,0],[0.1,0.2,0],[0.9,0.2,0],[0.5,0,0],[0.995,0.63,0],[0.72,0.99,0],[0.5,1,0],[0.28,0.99,0]];shape=mxgraph.kubernetes.icon2;kubernetesLabel=1;prIcon=pod" parent="166" vertex="1">
                    <mxGeometry x="66" y="146" width="50" height="48" as="geometry"/>
                </mxCell>
                <mxCell id="136" value="" style="aspect=fixed;sketch=0;html=1;dashed=0;whitespace=wrap;verticalLabelPosition=bottom;verticalAlign=top;fillColor=#2875E2;strokeColor=#ffffff;points=[[0.005,0.63,0],[0.1,0.2,0],[0.9,0.2,0],[0.5,0,0],[0.995,0.63,0],[0.72,0.99,0],[0.5,1,0],[0.28,0.99,0]];shape=mxgraph.kubernetes.icon2;kubernetesLabel=1;prIcon=pod" parent="166" vertex="1">
                    <mxGeometry x="126" y="146" width="50" height="48" as="geometry"/>
                </mxCell>
                <mxCell id="137" value="" style="aspect=fixed;sketch=0;html=1;dashed=0;whitespace=wrap;verticalLabelPosition=bottom;verticalAlign=top;fillColor=#2875E2;strokeColor=#ffffff;points=[[0.005,0.63,0],[0.1,0.2,0],[0.9,0.2,0],[0.5,0,0],[0.995,0.63,0],[0.72,0.99,0],[0.5,1,0],[0.28,0.99,0]];shape=mxgraph.kubernetes.icon2;kubernetesLabel=1;prIcon=pod" parent="166" vertex="1">
                    <mxGeometry x="186" y="146" width="50" height="48" as="geometry"/>
                </mxCell>
                <mxCell id="138" style="edgeStyle=none;html=1;entryX=0.5;entryY=0;entryDx=0;entryDy=0;entryPerimeter=0;fillColor=#dae8fc;strokeColor=#6c8ebf;" parent="166" source="129" target="135" edge="1">
                    <mxGeometry relative="1" as="geometry"/>
                </mxCell>
                <mxCell id="139" style="edgeStyle=none;html=1;entryX=0.5;entryY=0;entryDx=0;entryDy=0;entryPerimeter=0;fillColor=#dae8fc;strokeColor=#6c8ebf;" parent="166" source="129" target="136" edge="1">
                    <mxGeometry relative="1" as="geometry"/>
                </mxCell>
                <mxCell id="140" style="edgeStyle=none;html=1;entryX=0.5;entryY=0;entryDx=0;entryDy=0;entryPerimeter=0;fillColor=#dae8fc;strokeColor=#6c8ebf;" parent="166" source="129" target="137" edge="1">
                    <mxGeometry relative="1" as="geometry"/>
                </mxCell>
                <mxCell id="148" style="edgeStyle=none;html=1;entryX=0.5;entryY=0;entryDx=0;entryDy=0;entryPerimeter=0;fillColor=#dae8fc;strokeColor=#6c8ebf;" parent="166" source="134" target="127" edge="1">
                    <mxGeometry relative="1" as="geometry"/>
                </mxCell>
                <mxCell id="149" style="edgeStyle=none;html=1;entryX=0.5;entryY=0;entryDx=0;entryDy=0;entryPerimeter=0;fillColor=#dae8fc;strokeColor=#6c8ebf;" parent="166" source="134" target="128" edge="1">
                    <mxGeometry relative="1" as="geometry"/>
                </mxCell>
                <mxCell id="151" value="fiap-soat11" style="text;html=1;align=center;verticalAlign=middle;whiteSpace=wrap;rounded=0;" parent="166" vertex="1">
                    <mxGeometry x="41" width="100" height="30" as="geometry"/>
                </mxCell>
                <mxCell id="154" style="edgeStyle=none;html=1;fillColor=#dae8fc;strokeColor=#6c8ebf;entryX=0.995;entryY=0.63;entryDx=0;entryDy=0;entryPerimeter=0;" parent="166" source="130" target="129" edge="1">
                    <mxGeometry relative="1" as="geometry">
                        <mxPoint x="186" y="42" as="targetPoint"/>
                    </mxGeometry>
                </mxCell>
                <mxCell id="155" value="Load Balancer" style="aspect=fixed;sketch=0;html=1;dashed=0;whitespace=wrap;verticalLabelPosition=bottom;verticalAlign=top;fillColor=#2875E2;strokeColor=#ffffff;points=[[0.005,0.63,0],[0.1,0.2,0],[0.9,0.2,0],[0.5,0,0],[0.995,0.63,0],[0.72,0.99,0],[0.5,1,0],[0.28,0.99,0]];shape=mxgraph.kubernetes.icon2;kubernetesLabel=1;prIcon=svc;fontSize=10;" parent="166" vertex="1">
                    <mxGeometry x="26" y="104" width="50" height="48" as="geometry"/>
                </mxCell>
                <mxCell id="157" value="Escalonamento automático&lt;div&gt;CPU/Memória&lt;/div&gt;" style="text;html=1;align=center;verticalAlign=middle;whiteSpace=wrap;rounded=0;fontSize=9;" parent="166" vertex="1">
                    <mxGeometry x="176" y="12" width="110" height="30" as="geometry"/>
                </mxCell>
                <mxCell id="158" value="Criação e gerenciamento dos pods" style="text;html=1;align=center;verticalAlign=middle;whiteSpace=wrap;rounded=0;fontSize=9;" parent="166" vertex="1">
                    <mxGeometry x="96" y="87" width="110" height="30" as="geometry"/>
                </mxCell>
                <mxCell id="159" value="Variáveis de ambiente" style="text;html=1;align=center;verticalAlign=middle;whiteSpace=wrap;rounded=0;fontSize=9;" parent="166" vertex="1">
                    <mxGeometry x="41" y="236" width="78" height="30" as="geometry"/>
                </mxCell>
                <mxCell id="160" value="Dados sensíveis" style="text;html=1;align=center;verticalAlign=middle;whiteSpace=wrap;rounded=0;fontSize=9;" parent="166" vertex="1">
                    <mxGeometry x="176" y="236" width="78" height="30" as="geometry"/>
                </mxCell>
                <mxCell id="167" style="edgeStyle=none;html=1;entryX=-0.007;entryY=0.47;entryDx=0;entryDy=0;entryPerimeter=0;dashed=1;dashPattern=8 8;strokeColor=#999999;" parent="1" source="75" target="125" edge="1">
                    <mxGeometry relative="1" as="geometry">
                        <Array as="points">
                            <mxPoint x="754" y="843"/>
                        </Array>
                    </mxGeometry>
                </mxCell>
                <mxCell id="173" value="&lt;h1 style=&quot;margin-top: 0px;&quot;&gt;&lt;font style=&quot;font-size: 12px;&quot;&gt;EKS NodeGroup&lt;/font&gt;&lt;/h1&gt;&lt;p&gt;Tipo Instancia:&amp;nbsp;t3.medium&lt;/p&gt;&lt;p&gt;Disco 50&lt;/p&gt;&lt;p&gt;Mínimo:1&lt;/p&gt;&lt;p&gt;Máximo: 2&lt;/p&gt;" style="text;html=1;whiteSpace=wrap;overflow=hidden;rounded=0;spacing=0;" parent="1" vertex="1">
                    <mxGeometry x="617" y="768" width="161" height="166" as="geometry"/>
                </mxCell>
                <mxCell id="174" style="edgeStyle=none;html=1;entryX=0.384;entryY=0.031;entryDx=0;entryDy=0;entryPerimeter=0;endArrow=none;endFill=0;dashed=1;dashPattern=8 8;strokeColor=#999999;" parent="1" source="75" target="173" edge="1">
                    <mxGeometry relative="1" as="geometry"/>
                </mxCell>
                <mxCell id="180" style="edgeStyle=none;html=1;exitX=1;exitY=0.5;exitDx=0;exitDy=0;exitPerimeter=0;entryX=0;entryY=0;entryDx=0;entryDy=0;dashed=1;dashPattern=8 8;endArrow=none;endFill=0;strokeColor=#999999;" parent="1" source="175" target="178" edge="1">
                    <mxGeometry relative="1" as="geometry"/>
                </mxCell>
                <mxCell id="175" value="Database&lt;div&gt;Amazon RDS Mysql&lt;/div&gt;" style="outlineConnect=0;dashed=0;verticalLabelPosition=bottom;verticalAlign=top;align=center;html=1;shape=mxgraph.aws3.rds_db_instance;fillColor=#2E73B8;gradientColor=none;" parent="1" vertex="1">
                    <mxGeometry x="1160" y="421" width="69.75" height="96" as="geometry"/>
                </mxCell>
                <mxCell id="176" style="edgeStyle=none;html=1;entryX=0;entryY=0.5;entryDx=0;entryDy=0;entryPerimeter=0;" parent="1" source="52" target="175" edge="1">
                    <mxGeometry relative="1" as="geometry"/>
                </mxCell>
                <mxCell id="177" style="edgeStyle=none;html=1;" parent="1" source="75" target="175" edge="1">
                    <mxGeometry relative="1" as="geometry"/>
                </mxCell>
                <mxCell id="178" value="&lt;h1 style=&quot;margin-top: 0px;&quot;&gt;&lt;span style=&quot;font-size: 12px;&quot;&gt;DB Instance&lt;/span&gt;&lt;/h1&gt;&lt;p&gt;engine: mysql&lt;/p&gt;&lt;p&gt;engine_version: 8.0&lt;/p&gt;&lt;p&gt;instance_class: db.t3.micro&lt;/p&gt;" style="text;html=1;whiteSpace=wrap;overflow=hidden;rounded=0;spacing=0;" parent="1" vertex="1">
                    <mxGeometry x="1261" y="538" width="161" height="166" as="geometry"/>
                </mxCell>
                <mxCell id="184" style="edgeStyle=none;html=1;" edge="1" parent="1" source="181" target="175">
                    <mxGeometry relative="1" as="geometry"/>
                </mxCell>
                <mxCell id="181" value="Authentication Function&lt;div&gt;Lambda&lt;/div&gt;" style="outlineConnect=0;dashed=0;verticalLabelPosition=bottom;verticalAlign=top;align=center;html=1;shape=mxgraph.aws3.lambda_function;fillColor=#F58534;gradientColor=none;" vertex="1" parent="1">
                    <mxGeometry x="725" y="308" width="69" height="72" as="geometry"/>
                </mxCell>
                <mxCell id="182" style="edgeStyle=none;html=1;entryX=0;entryY=0.5;entryDx=0;entryDy=0;entryPerimeter=0;" edge="1" parent="1" source="50" target="52">
                    <mxGeometry relative="1" as="geometry"/>
                </mxCell>
                <mxCell id="183" value="Path /cliente&lt;div&gt;http_type Get&lt;/div&gt;&lt;div&gt;type AWS&lt;/div&gt;&lt;div&gt;permission&amp;nbsp;lambda:InvokeFunction&lt;/div&gt;" style="text;html=1;align=center;verticalAlign=middle;whiteSpace=wrap;rounded=0;" vertex="1" parent="1">
                    <mxGeometry x="492" y="418" width="204" height="58" as="geometry"/>
                </mxCell>
                <mxCell id="185" value="" style="points=[];aspect=fixed;html=1;align=center;shadow=0;dashed=0;fillColor=#FF6A00;strokeColor=none;shape=mxgraph.alibaba_cloud.eci_elastic_container_instance;verticalAlign=bottom;" vertex="1" parent="1">
                    <mxGeometry x="406.28" y="815" width="54.900000000000006" height="38.4" as="geometry"/>
                </mxCell>
                <mxCell id="186" value="Repositorio&lt;div&gt;fiap-cliente&lt;/div&gt;" style="text;html=1;align=center;verticalAlign=middle;whiteSpace=wrap;rounded=0;" vertex="1" parent="1">
                    <mxGeometry x="390.45000000000005" y="856" width="88.55" height="30" as="geometry"/>
                </mxCell>
                <mxCell id="187" style="edgeStyle=none;html=1;entryX=1.005;entryY=0.062;entryDx=0;entryDy=0;entryPerimeter=0;strokeColor=#999999;dashed=1;dashPattern=8 8;" edge="1" parent="1" source="181" target="64">
                    <mxGeometry relative="1" as="geometry"/>
                </mxCell>
            </root>
        </mxGraphModel>
    </diagram>
</mxfile>